# xmcd CD database file
#
# Track frame offsets:
#	150
#	18065
#	31170
#	47515
#	70695
#	84502
#	104765
#	118355
#	141497
#
# Disc length: 2076 seconds
#
# Revision: 0
# Processed by: cddbd v1.5.2PL0 Copyright (c) Steve Scherf et al.
# Submitted via: CDex 1.50Beta7
#
DISCID=76081a09
DTITLE=Johnny Hodges and Earl "Fatha" Hines - Stride Right
DYEAR=1965
DGENRE=Jazz
TTITLE0=Caution Blues
TTITLE1=Stride Right
TTITLE2=Rosetta
TTITLE3=Perdido
TTITLE4=Fantastic, That's You
TTITLE5=Tale of the Fox
TTITLE6=I'm Beginning to See the Light
TTITLE7=C Jam Blues
TTITLE8=Tippin' In
EXTD=YEAR: 1965
EXTT0=
EXTT1=
EXTT2=
EXTT3=
EXTT4=
EXTT5=
EXTT6=
EXTT7=
EXTT8=
PLAYORDER=
